PathFileType  4	(X/Y/Z) C:\Users\antoi\Documents\MyRepositories\mobilecap\ResultsAnalysis
DataRate	CameraRate	NumFrames	NumMarkers	Units	OrigDataRate	OrigDataStartFrame	OrigNumFrames
100.0	100.0	4	51	mm	100.0	235	268
Frame#	Time	r_knee			r_shank_antsup			r_ankle			r_calc			r_5meta			r_toe			L_knee			L_shank_antsup			L_ankle			L_calc			L_5meta			L_toe			r_sh2			r_sh3			r_sh4			L_sh2			L_sh3			r_thigh1			r_thigh2			r_thigh3			r_thigh4			r_thigh5			L_thigh1			L_thigh2			L_thigh3			L_thigh4			r.ASIS			r.PSIS			L.ASIS			L.PSIS			C7			R_Shoulder			L_Shoulder			R_Sternum			L_Sternum			R_humerus			R_elbow_med			R_elbow_lat			R_forearm			R_wrist_radius			R_wrist_ulna			L_humerus			L_elbow_med			L_elbow_lat			L_forearm			L_wrist_radius			L_wrist_ulna			R_HJC			L_HJC			R_HJC_reg			L_HJC_reg			
		X1	Y1	Z1	X2	Y2	Z2	X3	Y3	Z3	X4	Y4	Z4	X5	Y5	Z5	X6	Y6	Z6	X7	Y7	Z7	X8	Y8	Z8	X9	Y9	Z9	X10	Y10	Z10	X11	Y11	Z11	X12	Y12	Z12	X13	Y13	Z13	X14	Y14	Z14	X15	Y15	Z15	X16	Y16	Z16	X17	Y17	Z17	X18	Y18	Z18	X19	Y19	Z19	X20	Y20	Z20	X21	Y21	Z21	X22	Y22	Z22	X23	Y23	Z23	X24	Y24	Z24	X25	Y25	Z25	X26	Y26	Z26	X27	Y27	Z27	X28	Y28	Z28	X29	Y29	Z29	X30	Y30	Z30	X31	Y31	Z31	X32	Y32	Z32	X33	Y33	Z33	X34	Y34	Z34	X35	Y35	Z35	X36	Y36	Z36	X37	Y37	Z37	X38	Y38	Z38	X39	Y39	Z39	X40	Y40	Z40	X41	Y41	Z41	X42	Y42	Z42	X43	Y43	Z43	X44	Y44	Z44	X45	Y45	Z45	X46	Y46	Z46	X47	Y47	Z47	X48	Y48	Z48	X49	Y49	Z49	X50	Y50	Z50	X51	Y51	Z51	

235	2.34000000	-227.54855	965.94217	-454.55037	-212.11287	886.53146	-441.36252	-288.48123	531.57054	-465.29747	-356.02514	517.93711	-522.84134	-197.53493	397.52540	-438.52873	-146.26842	414.35346	-487.48723	-258.87945	959.25632	-745.77485	-237.94006	841.55005	-762.72074	-299.32709	512.43634	-722.64176	-366.97594	498.65206	-665.42197	-189.88157	376.35076	-748.25131	-144.70532	408.84444	-701.24770	-223.30596	774.23275	-432.38044	-287.98646	895.43774	-426.89257	-304.75099	779.88086	-429.05922	-326.89664	855.30241	-755.52897	-331.17877	734.38940	-752.99360	-152.45948	1287.06493	-422.97399	-142.68502	1177.51663	-435.95269	-195.40206	1145.00746	-410.77545	-266.23675	1272.58915	-420.38741	-248.50113	1156.43944	-423.00930	-189.40819	1280.75123	-790.36303	-182.49489	1143.05796	-785.40322	-305.91756	1273.60624	-768.58312	-290.70671	1135.28297	-769.28828	-130.60279	1489.75081	-483.95981	-321.21489	1537.27228	-548.99587	-151.34405	1474.83659	-743.93892	-328.72746	1534.86790	-653.63024	-369.07482	2031.84887	-613.51979	-335.78636	2026.34139	-465.02519	-308.68153	2033.83358	-759.88072	-209.31464	1994.27152	-574.71011	-209.64768	1990.44923	-640.66767	-462.10856	1894.89952	-293.32686	-499.31825	1769.43194	-291.77796	-511.82828	1842.48859	-233.02853	-370.44985	1807.45380	-158.84295	-261.40514	1781.14656	-131.61297	-289.23155	1754.53059	-108.41843	-427.51197	1883.58531	-918.93190	-513.85241	1784.47151	-891.75997	-481.10541	1822.94475	-961.31504	-334.01659	1727.65164	-966.86788	-247.22290	1694.59298	-938.86922	-258.79129	1666.14556	-966.69838	-218.66027	1416.37274	-480.85056	-234.99833	1404.71378	-710.34241	-211.02672	1412.57431	-513.54311	-223.37227	1408.62217	-685.46829	
236	2.35000000	-227.20414	961.96796	-452.84993	-211.77853	882.59342	-439.64625	-288.62311	527.77901	-461.98109	-356.31398	514.03802	-519.61949	-197.95141	393.58917	-435.01562	-146.77852	410.00924	-484.34025	-258.80518	955.35476	-747.09181	-238.20760	837.67104	-764.39827	-300.57022	508.67188	-725.18911	-368.12543	494.95040	-667.54138	-191.70577	371.87825	-750.35428	-146.30121	404.59193	-704.24484	-223.27922	770.22206	-430.15376	-288.00275	891.62619	-425.13968	-304.72518	776.19913	-427.03535	-327.15741	851.65094	-757.16880	-331.78603	730.68736	-754.78695	-152.58010	1283.13825	-422.67509	-142.77459	1173.56111	-435.13513	-195.49115	1141.23562	-409.79637	-266.31247	1268.68570	-420.17542	-248.61799	1152.54312	-422.37718	-188.60285	1277.00601	-790.70279	-181.82962	1139.29767	-786.02289	-305.24397	1269.90408	-769.22169	-290.13537	1131.48531	-770.44581	-130.99989	1485.88619	-483.58563	-321.50309	1532.90362	-549.29611	-150.73992	1471.17423	-743.32843	-328.50048	1531.02538	-654.15802	-371.19793	2028.01743	-614.02387	-337.28291	2023.35188	-465.31820	-310.52711	2029.96470	-760.52421	-211.21302	1990.51411	-575.04610	-211.39212	1986.78030	-640.58863	-464.03907	1890.66851	-295.61769	-505.55851	1765.17124	-296.92581	-515.17377	1837.17499	-236.40102	-374.69786	1794.59796	-163.85342	-266.82413	1762.72732	-137.68264	-295.75809	1737.17602	-114.59676	-431.31027	1878.37617	-915.52165	-518.90008	1781.12111	-884.95285	-486.12584	1817.11823	-955.93636	-340.63307	1719.30891	-959.85086	-254.17678	1685.56776	-931.42863	-266.41957	1656.60721	-958.50141	-219.03896	1412.30444	-480.86319	-234.32002	1400.90443	-710.44080	-211.07795	1408.04716	-513.88967	-222.54136	1404.97075	-685.67780	
237	2.36000000	-227.39826	957.15064	-451.26885	-211.91762	877.73558	-437.87519	-288.53728	522.94625	-458.78725	-356.42540	509.00157	-516.30088	-197.84899	388.71873	-431.68386	-146.90791	404.83208	-481.29596	-258.84972	950.38912	-748.36287	-238.44482	832.69204	-765.83848	-301.39189	503.90481	-727.63624	-369.04250	490.05832	-670.05540	-192.85321	366.88838	-753.07515	-147.40646	399.45082	-707.28221	-223.41326	765.22561	-428.11534	-287.94785	886.87263	-423.35808	-304.96989	771.39153	-424.99256	-327.42930	846.86605	-758.89158	-332.28034	725.84988	-756.68725	-152.76725	1278.42888	-422.21946	-142.96324	1168.64489	-434.25981	-195.88268	1136.49481	-408.96201	-266.45879	1263.80841	-420.03377	-248.94091	1147.74817	-421.74047	-187.83284	1272.21381	-790.75108	-181.23684	1134.42449	-786.44320	-304.57138	1265.25591	-770.17264	-289.52828	1126.74111	-771.74995	-131.16984	1481.04545	-483.61052	-321.52509	1528.00060	-549.67443	-150.29392	1466.46672	-742.79768	-328.30459	1526.12493	-654.65305	-373.21296	2023.02648	-614.42612	-338.82782	2019.30914	-465.56259	-312.13725	2024.93705	-761.11377	-213.10792	1985.66313	-575.57880	-213.18480	1981.79636	-640.63827	-465.77569	1885.33320	-297.27891	-511.11935	1760.79769	-301.77044	-518.16991	1831.22962	-239.18751	-378.49883	1781.63145	-169.30539	-271.89420	1744.45900	-144.74903	-301.70011	1720.23647	-121.34687	-434.95431	1872.28234	-912.20711	-523.77969	1776.94214	-878.67645	-491.02003	1810.55161	-950.80777	-346.75680	1711.05675	-953.05452	-260.66572	1676.80328	-924.09905	-273.43163	1647.36109	-950.21656	-219.24136	1407.45388	-480.93007	-233.84504	1396.08242	-710.55358	-211.09210	1403.41459	-513.99488	-222.16153	1400.35289	-685.40992	
238	2.37000000	-228.02533	951.27585	-449.96849	-212.37313	871.95712	-435.99371	-288.34856	517.02325	-455.82301	-356.40484	502.75822	-513.10700	-197.47471	382.84797	-428.65951	-146.68592	398.87955	-478.21785	-258.97520	944.45445	-749.52936	-238.63182	826.86916	-767.46071	-301.89083	498.06221	-730.19294	-369.77855	483.98055	-672.97211	-193.27357	361.67984	-757.01894	-148.01709	393.47069	-710.03689	-223.73423	759.38248	-426.07799	-287.59613	880.58371	-422.12586	-305.24909	765.41626	-422.82025	-327.64028	840.98950	-760.68897	-332.58751	720.05110	-758.75954	-153.29054	1272.83434	-421.44622	-143.38935	1162.84660	-433.26355	-196.54123	1130.71867	-408.16512	-266.84452	1258.07101	-419.89606	-249.50035	1142.05105	-421.11384	-187.03819	1266.33826	-790.63577	-180.73352	1128.55717	-786.81529	-303.90169	1259.54509	-771.22485	-288.98821	1121.04922	-772.78931	-131.16655	1475.31901	-483.78123	-321.40211	1522.71747	-549.85506	-149.97494	1460.73257	-742.61200	-328.15085	1520.07712	-654.91487	-375.11076	2016.87935	-614.56323	-340.38186	2014.04652	-465.84914	-313.59720	2018.86006	-761.43351	-215.03464	1979.73575	-576.16684	-215.31401	1975.48561	-641.60714	-467.51681	1878.70397	-298.36195	-516.11577	1756.02187	-306.17891	-520.85368	1824.62184	-241.37822	-381.95426	1768.52071	-174.94532	-276.67555	1726.35661	-152.50888	-307.14750	1703.55060	-128.56355	-438.52665	1865.28401	-909.15801	-528.40666	1771.86732	-872.86671	-495.73640	1803.22713	-945.98133	-352.40135	1702.67152	-946.42255	-266.62536	1668.16426	-916.91717	-279.74729	1638.35200	-942.28468	-219.23784	1401.89172	-480.92200	-233.61957	1390.27214	-710.54696	-211.28812	1398.87694	-513.62088	-222.28192	1394.57508	-684.76218	
